# xmcd CD database file
# Copyright (C) 1995-1998 Ti Kan
#
# Track frame offsets:
#	150
#	27635
#	63190
#	100400
#	149448
#	158275
#	206780
#	222873
#	260418
#	310048
#
# Disc length: 4324 seconds
#
# Revision: 1
# Processed by: cddbd v1.4b42PL1 Copyright (c) Steve Scherf et al.
# Submitted via: CDex 1.30Release
#
DISCID=8c10e20a
DTITLE=Ten years after - Recorded live
DYEAR=1900
DGENRE=Blues
TTITLE0=One of these days
TTITLE1=Good morning little schoolgirl
TTITLE2=Hobbit
TTITLE3=Help me
TTITLE4=I can't keep from cryin' sometimes 1
TTITLE5=I can't keep from cryin' sometimes 2
TTITLE6=I can't keep from cryin' sometimes 3
TTITLE7=Slow blues in 'C'
TTITLE8=I'm going home
TTITLE9=Choo choo mama
EXTD=ID3G:   0
EXTT0=
EXTT1=
EXTT2=
EXTT3=
EXTT4=
EXTT5=
EXTT6=
EXTT7=
EXTT8=
EXTT9=
PLAYORDER=
